<svg xmlns="http://www.w3.org/2000/svg" viewBox="0 0 24 24" width="192" height="192">
  <circle cx="12" cy="12" r="10" opacity=".35" fill="currentColor" />
  <path
    d="M14.812 16.215L7.785 9.188a.985.985 0 010-1.392l.011-.011a.985.985 0 011.392 0l7.027 7.027a.985.985 0 010 1.392l-.011.011a.985.985 0 01-1.392 0z"
    fill="currentColor" />
  <path
    d="M7.785 14.812l7.027-7.027a.985.985 0 011.392 0l.011.011a.985.985 0 010 1.392l-7.027 7.027a.985.985 0 01-1.392 0l-.011-.011a.985.985 0 010-1.392z"
    fill="currentColor" />
</svg>
