<svg xmlns="http://www.w3.org/2000/svg" viewBox="0 0 24 24" width="192" height="192" fill="currentColor">
  <path
    d="M15.203 14.789l-1.167-1.509a3.01 3.01 0 01-.615-1.567L13 7a1 1 0 00-2 0l-.381 4.885a2.999 2.999 0 001.051 2.521l2.119 1.797a.999.999 0 101.414-1.414z" />
  <path
    d="M19.071 4.929C17.118 2.976 14.559 2 12 2s-5.118.976-7.071 2.929C.755 9.103 1.042 16.048 5.79 19.841c1.793 1.432 4.001 2.148 6.21 2.149 2.208-.001 4.416-.717 6.21-2.149 4.748-3.793 5.035-10.738.861-14.912zm-.39 11.483c-1.614 2.392-4.148 3.582-6.681 3.583-2.534 0-5.067-1.19-6.681-3.583-1.777-2.634-1.777-6.189 0-8.823C6.933 5.196 9.466 4.006 12 4.006s5.067 1.19 6.681 3.583c1.777 2.634 1.777 6.188 0 8.823z"
    opacity=".35" />
</svg>
