<svg xmlns="http://www.w3.org/2000/svg" viewBox="0 0 24 24" width="192" height="192" fill="currentColor">
  <circle cx="12" cy="12" r="9" opacity=".35" />
  <path
    d="M12 2C6.486 2 2 6.486 2 12s4.486 10 10 10 10-4.486 10-10S17.514 2 12 2zm7.931 9h-2.954c-.111-2.442-.624-4.577-1.416-6.154A8.013 8.013 0 0119.931 11zM12 20c-1.137 0-2.751-2.697-2.972-7h5.945c-.222 4.303-1.836 7-2.973 7zm-2.972-9C9.249 6.697 10.863 4 12 4s2.751 2.697 2.972 7H9.028zM8.44 4.846C7.648 6.423 7.134 8.558 7.024 11H4.069A8.012 8.012 0 018.44 4.846zM4.069 13h2.954c.111 2.442.624 4.577 1.416 6.154A8.013 8.013 0 014.069 13zm11.491 6.154c.792-1.577 1.305-3.711 1.416-6.154h2.954a8.008 8.008 0 01-4.37 6.154z" />
</svg>
