<svg xmlns="http://www.w3.org/2000/svg" viewBox="0 0 50 50" width="500" height="500">
  <path
    d="M26.563 1c-3.926 0-7.157 3.133-7.157 7 0 1.734.664 3.074 1.719 4.563.86 1.214.813 1.87.719 2.062-.094.191-.446.438-1.375.375-2.43-.164-10.219-1.063-10.219-1.063v.032c-.941-.13-1.883.273-2.375.937-.477.645-.656 1.403-.75 2.188v.062c-.004.024-.027.04-.031.063h.031c-.012.043-.434 1.988-1.063 10.25-.007.129-.019.027-.03.156h.03c-.05.387-.007.734 0 .781.125.637.477 1.27 1.063 1.563.586.293 1.18.215 1.688.062 1.019-.304 1.98-.984 2.968-1.687C12.95 27.516 14.047 27 15.312 27c2.872 0 5.157 2.238 5.157 5s-2.285 5-5.157 5c-1.425 0-2.234-.367-3.593-1.438-.758-.593-1.645-1.238-2.594-1.593-.477-.176-.984-.282-1.563-.157-.578.126-1.136.602-1.375 1.188-.246.602-.234 1.023-.156 1.531.004.051-.004.012 0 .063.59 6.12.887 6.718 1.094 7.625.148.648.414 1.308.906 1.843.492.536 1.27.938 2.125.938h32.032c1.113 0 2.12-.367 2.812-1.063.691-.695 1-1.66 1-2.687V17.375c0-.96-.355-1.781-.906-2.344-.551-.562-1.23-.87-1.875-1.062a1.012 1.012 0 00-.375-.031s-7.528.746-10.25 1.062c-.793.09-1.067-.086-1.188-.344-.12-.258-.172-.988.563-2.156.554-.883.98-1.527 1.281-2.219.3-.691.438-1.418.438-2.281 0-3.867-3.2-7-7.126-7zm0 2c2.87 0 5.125 2.238 5.125 5 0 .664-.079 1.035-.282 1.5-.203.465-.566 1.047-1.125 1.938-.937 1.492-1.234 2.906-.687 4.062.547 1.156 1.886 1.652 3.218 1.5 2.586-.3 9.575-.992 9.97-1.031.39.133.734.261.906.437.195.2.312.418.312.969V43.25c0 .629-.176 1.016-.438 1.281-.261.266-.66.469-1.374.469H10.156c-.277 0-.433-.07-.625-.281a2.251 2.251 0 01-.469-.938c-.257-1.117-.433-1.218-1.03-7.437A.466.466 0 008 36.28c-.02-.11.082-.656.031-.531.035 0 .168.004.406.094.543.203 1.344.77 2.032 1.312C12 38.36 13.473 39 15.313 39c3.925 0 7.156-3.133 7.156-7s-3.23-7-7.157-7c-1.824 0-3.359.773-4.687 1.719-.95.676-1.883 1.258-2.375 1.406-.094.027-.14.027-.188.031-.003-.027-.011-.035-.03-.125-.012-.062 0-.11 0-.125a.668.668 0 000-.125c.648-8.648 1.03-10.218 1.03-10.218.012-.04.024-.083.032-.125.07-.649.23-1.145.375-1.344.144-.2.117-.219.5-.157h.062s7.692.887 10.313 1.063c1.375.094 2.734-.316 3.312-1.5.578-1.184.157-2.59-.906-4.094-.98-1.383-1.344-2.133-1.344-3.406 0-2.762 2.285-5 5.157-5z"
    fill="currentColor" />
</svg>
