<svg xmlns="http://www.w3.org/2000/svg" viewBox="0 0 24 24" width="192" height="192" fill="currentColor">
  <circle cx="12" cy="12" r="10" opacity=".35" />
  <path
    d="M11.883 13.973h-.006c-.67 0-1.187-.605-1.072-1.265.35-2.013 1.917-2.083 1.917-3.333 0-.347-.06-1.124-.896-1.124-.452 0-.718.289-.873.597-.209.417-.691.622-1.15.541-.696-.124-1.123-.87-.828-1.512C9.397 6.96 10.261 6 11.972 6c2.776 0 3.148 2.174 3.148 3.196 0 2.416-1.799 2.506-2.172 3.898-.135.502-.545.879-1.065.879zm1.442 2.56c0 .412-.127.76-.382 1.043-.256.282-.591.424-1.003.424-.414 0-.748-.142-1.003-.424a1.503 1.503 0 01-.384-1.043c0-.403.129-.75.384-1.045.255-.293.589-.439 1.003-.439.412 0 .747.146 1.003.439.255.295.382.643.382 1.045z" />
</svg>
