<svg xmlns="http://www.w3.org/2000/svg" viewBox="0 0 24 24" width="192" height="192" fill="currentColor">
  <path
    d="M21.283 5.29l-3.104-3.075A.692.692 0 0017 2.706v6.588c0 .615.742.924 1.178.491l3.104-3.075a.998.998 0 00.001-1.42z" />
  <path
    d="M5.277 20H4a2 2 0 010-4h1.277c.354 0 .685-.19.864-.496l5.264-9.023A5.013 5.013 0 0115.723 4H18a2 2 0 010 4h-2.277c-.354 0-.685.19-.864.496L9.596 17.52A5.017 5.017 0 015.277 20z" />
  <path
    d="M21.283 17.29l-3.104-3.075a.692.692 0 00-1.179.491V16h-.395a.998.998 0 01-.832-.445L9.555 6.227A4.99 4.99 0 005.395 4H4a2 2 0 000 4h1.395c.335 0 .646.166.832.445l6.219 9.328A4.986 4.986 0 0016.605 20H17v1.294c0 .615.742.924 1.178.491l3.104-3.075a.998.998 0 00.001-1.42z"
    opacity=".35" />
</svg>
