<svg xmlns="http://www.w3.org/2000/svg" viewBox="0 0 24 24" width="192" height="192" fill="currentColor">
  <path
    d="M19.5 4h-9C9.7 4 9 4.7 9 5.5S9.7 7 10.5 7h9c.8 0 1.5-.7 1.5-1.5S20.3 4 19.5 4zM19.5 11h-9c-.8 0-1.5.7-1.5 1.5s.7 1.5 1.5 1.5h9c.8 0 1.5-.7 1.5-1.5s-.7-1.5-1.5-1.5zM19.5 18h-9c-.8 0-1.5.7-1.5 1.5s.7 1.5 1.5 1.5h9c.8 0 1.5-.7 1.5-1.5s-.7-1.5-1.5-1.5z"
    opacity=".35" />
  <path d="M6 7H4c-.6 0-1-.4-1-1V4c0-.6.4-1 1-1h2c.6 0 1 .4 1 1v2c0 .6-.4 1-1 1z" />
  <path d="M6 14H4c-.6 0-1-.4-1-1v-2c0-.6.4-1 1-1h2c.6 0 1 .4 1 1v2c0 .6-.4 1-1 1z" opacity=".35" />
  <path d="M6 21H4c-.6 0-1-.4-1-1v-2c0-.6.4-1 1-1h2c.6 0 1 .4 1 1v2c0 .6-.4 1-1 1z" />
</svg>
