<svg xmlns="http://www.w3.org/2000/svg" viewBox="0 0 24 24" width="192" height="192">
  <path
    d="M2.772 14.328c1.027 1.027 7.241 6.196 7.672 6.627.43.43.993.644 1.556.644s1.126-.215 1.556-.644c.432-.431 6.646-5.601 7.672-6.627 2.363-2.363 2.363-6.193 0-8.556s-6.193-2.363-8.556 0a6.06 6.06 0 00-.672.823 6.06 6.06 0 00-.672-.823c-2.363-2.363-6.193-2.363-8.556 0s-2.363 6.193 0 8.556z"
    opacity=".55" fill="currentColor" />
  <path d="M13 10.5h1a2 2 0 002-2 .5.5 0 00-.5-.5H13v2.5zM13 14.5L11 13v-3a2 2 0 012-2v6.5z" fill="currentColor" />
  <circle cx="10.5" cy="14.5" r="2.5" fill="currentColor" />
</svg>
