<svg xmlns="http://www.w3.org/2000/svg" data-name="Слой 1" viewBox="0 0 24 24" width="192" height="192">
  <path
    d="M1 17.625A1.379 1.379 0 002.375 19h19.25A1.372 1.372 0 0023 17.625C23 15.75 20.679 13 19.562 13s-2.128 2-4.812 2c-3.358 0-5.5-7-8.25-7S1 14 1 17.625z"
    fill="currentColor" />
  <path
    d="M17.308 6.307a2.664 2.664 0 01-1.838.778.469.469 0 00-.391.728 2.619 2.619 0 00.937.854 2.691 2.691 0 003.2-4.264 2.507 2.507 0 00-.391-.321.469.469 0 00-.734.387 2.659 2.659 0 01-.783 1.838z"
    opacity=".55" fill="currentColor" />
</svg>
