<svg xmlns="http://www.w3.org/2000/svg" viewBox="0 0 24 24" width="192" height="192">
  <path d="M18 3.5V6h-2.5a1.5 1.5 0 000 3H19a2 2 0 002-2V3.5a1.5 1.5 0 00-3 0z" fill="currentColor" />
  <path
    d="M5.136 10.598c.533-2.748 2.758-4.954 5.509-5.471 2.489-.467 4.797.387 6.355 1.979V7h3.651c-1.885-3.253-5.541-5.353-9.655-4.951-4.629.452-8.421 4.188-8.933 8.81-.042.385-.062.765-.062 1.141H5.01c0-.459.034-.926.126-1.402z"
    fill="currentColor" />
  <path
    d="M12 22c4.927 0 9.022-3.564 9.848-8.254.16-.906-.508-1.746-1.428-1.746h-.093c-.727 0-1.31.543-1.44 1.258A7.002 7.002 0 0112 19c-3.865 0-6.989-3.135-6.99-7H2.001c0 5.523 4.476 10 9.999 10z"
    opacity=".35" fill="currentColor" />
</svg>
