<svg xmlns="http://www.w3.org/2000/svg" viewBox="0 0 512 512" fill="currentColor">
  <path
    d="M256 151.1c-57.9 0-104.9 47-104.9 104.9s47 104.9 104.9 104.9c57.9-.1 104.8-47 104.9-104.9 0-57.9-47-104.9-104.9-104.9zm.1 189.7c-47.9 0-86.7-38.1-86.7-85s38.8-85 86.7-85c47.9 0 86.7 38.1 86.7 85-.1 46.9-38.9 84.9-86.7 85z" />
  <path
    d="M506.8 236.9l.1.2-109.1-189c-6.7-11.4-18.8-18.9-32.7-18.9H146.9c-13.9 0-26.1 7.5-32.6 18.7l-.1.2L5 237.1C1.9 242.5 0 249 0 256c0 7 1.9 13.5 5.1 19.1l-.1-.2 109.1 189c6.7 11.4 18.8 18.9 32.7 18.9H365c13.9 0 26.1-7.5 32.6-18.7l.1-.2 109.1-189c3.2-5.4 5-11.9 5-18.9.2-6.9-1.7-13.5-5-19.1zm-23.5 36.4l-98.9 171.2-.1.2c-6 10.1-17 16.9-29.6 17H157.1c-12.6 0-23.6-6.8-29.6-17.1L28.6 273.3l.1.2c-3-5.1-4.7-11-4.7-17.3 0-6.3 1.7-12.2 4.6-17.1l98.9-171.2.1-.2c6-10.1 17-16.9 29.6-17h197.7c12.6 0 23.6 6.8 29.6 17.1L483.3 239l-.1-.2c3 5.1 4.7 11 4.7 17.3 0 6.4-1.7 12.3-4.6 17.2z" />
</svg>
