<svg id="prefix__a" xmlns="http://www.w3.org/2000/svg" viewBox="0 0 512 454" fill="currentColor">
  <defs>
    <style>
      .prefix__b {
        stroke-width: 0
      }
    </style>
  </defs>
  <path class="prefix__b"
    d="M256 122c-58 0-105 47-105 105s47 105 105 105 105-47 105-105-47-105-105-105zm0 187c-46 0-84-37-84-83s38-83 84-83 84 37 84 83-38 83-84 83z" />
  <path class="prefix__b"
    d="M507 208L398 19c-7-11-19-19-33-19H147c-14 0-26 8-33 19S5 208 5 208c-3 5-5 12-5 19s2 13 5 19 109 189 109 189c7 11 19 19 33 19h218c14 0 26-8 33-19s109-189 109-189c3-5 5-12 5-19s-2-13-5-19zm-30 36l-96 166c-6 1-16 17-29 17H160c-12 0-23-7-29-17L35 244c-3-5-5-11-5-17s2-12 4-17l97-166c6-1 16-17 29-17h192c12 0 23 7 29 17l96 166c3 5 5 11 5 17s-2 12-4 17z" />
</svg>
