<svg xmlns="http://www.w3.org/2000/svg" viewBox="0 0 24 24" width="192" height="192" fill="currentColor">
  <path
    d="M16 18.928a2.476 2.476 0 012.135-.164 1.414 1.414 0 001.592-.43 9.967 9.967 0 001.621-2.805c.221-.587.012-1.232-.467-1.638a2.471 2.471 0 01-.001-3.784c.479-.406.689-1.05.467-1.638a9.957 9.957 0 00-1.621-2.805 1.414 1.414 0 00-1.592-.43 2.472 2.472 0 01-3.344-1.937 1.398 1.398 0 00-1.143-1.158 9.832 9.832 0 00-3.294 0c-.587.1-1.052.57-1.143 1.158a2.472 2.472 0 01-3.345 1.938 1.414 1.414 0 00-1.592.43 9.964 9.964 0 00-1.62 2.805c-.222.587-.012 1.232.467 1.637.538.456.88 1.132.88 1.893 0 .761-.342 1.437-.88 1.893-.479.406-.689 1.05-.467 1.638a9.957 9.957 0 001.621 2.805 1.414 1.414 0 001.592.43 2.472 2.472 0 013.344 1.937c.09.588.556 1.058 1.143 1.158a9.832 9.832 0 003.294 0 1.395 1.395 0 001.143-1.158c.11-.719.53-1.382 1.21-1.775z"
    opacity=".35" />
  <path d="M12 8a4 4 0 100 8 4 4 0 000-8z" />
</svg>
