<svg xmlns="http://www.w3.org/2000/svg" viewBox="0 0 24 24" width="192" height="192" fill="currentColor">
  <path
    d="M13.869 16c-.771 0-1.159.93-.616 1.478l3.856 3.893a1.255 1.255 0 001.782 0l3.856-3.893c.543-.548.155-1.478-.616-1.478h-8.262z" />
  <path d="M20 17v-7a2 2 0 10-4 0v7h4z" />
  <circle cx="18" cy="4" r="2" />
  <path
    d="M10.747 6.522L6.891 2.629a1.255 1.255 0 00-1.782 0L1.253 6.522C.71 7.07 1.098 8 1.869 8H4v6a2 2 0 104 0V8h2.131c.771 0 1.159-.93.616-1.478z"
    opacity=".35" />
  <circle cx="6" cy="20" r="2" opacity=".35" />
</svg>
