<svg xmlns="http://www.w3.org/2000/svg" viewBox="0 0 24 24" width="192" height="192" fill="currentColor">
  <path
    d="M21.155 20.101c1.414-2.118 2.113-4.755 1.751-7.564-.637-4.938-4.679-8.906-9.627-9.464C6.631 2.323 1 7.504 1 14c0 2.263.684 4.367 1.856 6.116.371.554.999.884 1.667.884h14.953c.674 0 1.304-.339 1.679-.899z"
    opacity=".35" />
  <circle cx="20" cy="14" r="1" />
  <path d="M11.25 12.701a1.5 1.5 0 001.5 2.598c.717-.414 7.458-5.082 7.044-5.799-.414-.717-7.827 2.787-8.544 3.201z" />
  <circle cx="4" cy="14" r="1" />
  <circle cx="12" cy="6" r="1" />
  <circle cx="5.072" cy="18" r="1" />
  <circle cx="8" cy="7.072" r="1" />
  <circle cx="16" cy="7.072" r="1" />
  <circle cx="18.928" cy="18" r="1" />
  <circle cx="5.072" cy="10" r="1" />
</svg>
