<svg xmlns="http://www.w3.org/2000/svg" viewBox="0 0 24 24" width="192" height="192">
  <path
    d="M19.071 4.929C15.446 1.304 9.734 1.05 5.809 4.154l-.272-.273a.586.586 0 00-.992.316l-.412 2.41a.586.586 0 00.677.676l2.41-.412a.586.586 0 00.316-.992l-.297-.296a8.003 8.003 0 0111.443 2.006c1.777 2.634 1.777 6.189 0 8.823-2.918 4.325-8.843 4.74-12.338 1.245a7.953 7.953 0 01-2.182-4.066.985.985 0 00-1.061-.781 1.005 1.005 0 00-.896 1.195 9.983 9.983 0 003.708 5.932c3.587 2.779 8.753 2.737 12.298-.095 4.747-3.794 5.034-10.739.86-14.913z"
    opacity=".55" fill="currentColor" />
  <path
    d="M15.203 14.789l-1.167-1.509a3.01 3.01 0 01-.615-1.567L13 7a1 1 0 00-2 0l-.381 4.885a2.999 2.999 0 001.051 2.521l2.119 1.797a.999.999 0 101.414-1.414z"
    fill="currentColor" />
</svg>
