<svg xmlns="http://www.w3.org/2000/svg" viewBox="0 0 24 24" width="192" height="192" fill="currentColor">
  <path
    d="M20 4h-7.184c.112.314.184.647.184 1s-.072.686-.184 1H20a1 1 0 000-2zM4 6h3.184C7.072 5.686 7 5.353 7 5s.072-.686.184-1H4a1 1 0 000 2z" />
  <circle cx="10" cy="5" r="3" opacity=".35" />
  <path
    d="M20 11h-2.184c.112.314.184.647.184 1s-.072.686-.184 1H20a1 1 0 000-2zM4 13h8.184c-.112-.314-.184-.647-.184-1s.072-.686.184-1H4a1 1 0 000 2z" />
  <circle cx="15" cy="12" r="3" opacity=".35" />
  <path
    d="M20 18h-7.184c.112.314.184.647.184 1s-.072.686-.184 1H20a1 1 0 000-2zM4 20h3.184C7.072 19.686 7 19.353 7 19s.072-.686.184-1H4a1 1 0 000 2z" />
  <circle cx="10" cy="19" r="3" opacity=".35" />
</svg>
