<svg xmlns="http://www.w3.org/2000/svg" viewBox="0 0 24 24" width="192" height="192">
  <path
    d="M11.662 3.112a2.005 2.005 0 00-2.224.639L6.039 8H5c-1.654 0-3 1.346-3 3v2c0 1.654 1.346 3 3 3h1.039l3.399 4.249A2 2 0 0013 19V5a2 2 0 00-1.338-1.888z"
    opacity=".35" fill="currentColor" />
  <path d="M20 15a.997.997 0 01-.707-.293l-4-4a.999.999 0 111.414-1.414l4 4A.999.999 0 0120 15z" fill="currentColor" />
  <path d="M16 15a.999.999 0 01-.707-1.707l4-4a.999.999 0 111.414 1.414l-4 4A.997.997 0 0116 15z" fill="currentColor" />
</svg>
