<svg xmlns="http://www.w3.org/2000/svg" viewBox="0 0 24 24" width="192" height="192">
  <path
    d="M15 17.225a.999.999 0 01-.335-1.942A3.5 3.5 0 0017 12a3.498 3.498 0 00-2.335-3.282 1 1 0 11.67-1.884C17.527 7.612 19 9.688 19 12s-1.473 4.388-3.665 5.167c-.11.039-.224.058-.335.058z"
    fill="currentColor" />
  <path d="M13 10v4a2 2 0 000-4z" fill="currentColor" />
  <path
    d="M11.662 3.112a2.005 2.005 0 00-2.224.639L6.039 8H5c-1.654 0-3 1.346-3 3v2c0 1.654 1.346 3 3 3h1.039l3.399 4.249A2 2 0 0013 19V5a2 2 0 00-1.338-1.888z"
    opacity=".35" fill="currentColor" />
</svg>
